<svg width="76" height="97" viewBox="0 0 76 97" fill="none" xmlns="http://www.w3.org/2000/svg">
<path d="M69.0909 10.3636H58.7273V6.90909C58.7273 5.07669 57.9994 3.31933 56.7037 2.02363C55.408 0.72792 53.6506 0 51.8182 0H24.1818C22.3494 0 20.5921 0.72792 19.2964 2.02363C18.0007 3.31933 17.2727 5.07669 17.2727 6.90909V10.3636H6.90909C5.07669 10.3636 3.31933 11.0916 2.02363 12.3873C0.72792 13.683 0 15.4403 0 17.2727V89.8182C0 91.6506 0.72792 93.408 2.02363 94.7037C3.31933 95.9994 5.07669 96.7273 6.90909 96.7273H69.0909C70.9233 96.7273 72.6807 95.9994 73.9764 94.7037C75.2721 93.408 76 91.6506 76 89.8182V17.2727C76 15.4403 75.2721 13.683 73.9764 12.3873C72.6807 11.0916 70.9233 10.3636 69.0909 10.3636ZM24.1818 6.90909H51.8182V20.7273H24.1818V6.90909ZM69.0909 89.8182H6.90909V17.2727H17.2727V27.6364H58.7273V17.2727H69.0909V89.8182Z" fill="white"/>
</svg>
