<svg width="17" height="21" viewBox="0 0 17 21" fill="none" xmlns="http://www.w3.org/2000/svg">
<path d="M14.0781 0C14.4618 0 14.8418 0.0746874 15.1963 0.219798C15.5508 0.364908 15.8729 0.5776 16.1442 0.845729C16.4155 1.11386 16.6307 1.43217 16.7776 1.7825C16.9244 2.13283 17 2.50831 17 2.8875V18.1125C17 18.4917 16.9244 18.8672 16.7776 19.2175C16.6307 19.5678 16.4155 19.8861 16.1442 20.1543C15.8729 20.4224 15.5508 20.6351 15.1963 20.7802C14.8418 20.9253 14.4618 21 14.0781 21H2.92188C2.53808 21 2.15804 20.9253 1.80348 20.7801C1.44891 20.6349 1.12676 20.4221 0.855422 20.1539C0.584087 19.8857 0.368885 19.5672 0.222109 19.2168C0.0753339 18.8663 -0.000139369 18.4907 1.932e-07 18.1115V2.8875C1.932e-07 1.5645 0.898875 0.4515 2.125 0.10815V1.8375C1.802 2.0769 1.59375 2.457 1.59375 2.8875V18.1104C1.59375 18.8349 2.18875 19.4229 2.92188 19.4229H14.0781C14.8112 19.4229 15.4062 18.8349 15.4062 18.1104V2.8875C15.4062 2.163 14.8112 1.575 14.0781 1.575H11.6875V0H14.0781ZM10.625 0V8.54595C10.625 9.3303 9.775 9.6243 9.25438 9.34815L9.16725 9.29355L6.90837 7.9443L4.7005 9.25785C4.16925 9.63585 3.28738 9.40485 3.19494 8.67195L3.1875 8.547V0H10.625ZM9.03125 1.575H4.78125V7.37415L6.45256 6.3777C6.58572 6.30774 6.73341 6.26908 6.88414 6.26471C7.03488 6.26034 7.18461 6.29038 7.32169 6.3525L9.03231 7.3752V1.575H9.03125Z" fill="white"/>
</svg>
