<svg width="19" height="17" viewBox="0 0 19 17" fill="none" xmlns="http://www.w3.org/2000/svg">
<path d="M18.2536 5.814C17.7767 4.68288 17.0854 3.65523 16.2179 2.788C15.3525 1.91868 14.327 1.22588 13.1982 0.748C12.0256 0.25075 10.7829 0 9.5 0C8.21708 0 6.97444 0.25075 5.80179 0.748C4.67304 1.22588 3.64755 1.91868 2.78214 2.788C1.91465 3.65523 1.2233 4.68288 0.746428 5.814C0.250223 6.98913 0 8.23438 0 9.52C0 12.3399 1.23627 14.9961 3.39074 16.8109L3.42679 16.8406C3.54978 16.9426 3.70458 17 3.86362 17H15.1385C15.2975 17 15.4523 16.9426 15.5753 16.8406L15.6114 16.8109C17.7637 14.9961 19 12.3399 19 9.52C19 8.23438 18.7477 6.98913 18.2536 5.814ZM14.7886 15.385H4.21138C3.392 14.6446 2.73712 13.7399 2.28924 12.7295C1.84136 11.7191 1.61049 10.6256 1.61161 9.52C1.61161 7.40775 2.43225 5.423 3.92299 3.93125C5.41373 2.43738 7.39431 1.615 9.5 1.615C11.6078 1.615 13.5884 2.43738 15.077 3.93125C16.5677 5.42513 17.3884 7.40987 17.3884 9.52C17.3884 11.764 16.4448 13.8869 14.7886 15.385ZM11.8644 6.57688C11.8325 6.54524 11.7895 6.52749 11.7446 6.52749C11.6997 6.52749 11.6567 6.54524 11.6248 6.57688L9.83292 8.3725C9.43638 8.26625 8.99743 8.36825 8.68571 8.68062C8.5753 8.79106 8.48771 8.92222 8.42795 9.06662C8.36818 9.21101 8.33742 9.3658 8.33742 9.52212C8.33742 9.67845 8.36818 9.83324 8.42795 9.97763C8.48771 10.122 8.5753 10.2532 8.68571 10.3636C8.79591 10.4743 8.92681 10.562 9.0709 10.6219C9.21499 10.6818 9.36945 10.7127 9.52545 10.7127C9.68144 10.7127 9.8359 10.6818 9.97999 10.6219C10.1241 10.562 10.255 10.4743 10.3652 10.3636C10.5129 10.2161 10.6191 10.0321 10.6731 9.83021C10.727 9.62835 10.7269 9.41579 10.6727 9.214L12.4645 7.41838C12.5302 7.3525 12.5302 7.24412 12.4645 7.17825L11.8644 6.57688ZM9.03348 4.42H9.96652C10.0598 4.42 10.1362 4.3435 10.1362 4.25V2.55C10.1362 2.4565 10.0598 2.38 9.96652 2.38H9.03348C8.94018 2.38 8.86384 2.4565 8.86384 2.55V4.25C8.86384 4.3435 8.94018 4.42 9.03348 4.42ZM14.5469 9.0525V9.9875C14.5469 10.081 14.6232 10.1575 14.7165 10.1575H16.4129C16.5062 10.1575 16.5826 10.081 16.5826 9.9875V9.0525C16.5826 8.959 16.5062 8.8825 16.4129 8.8825H14.7165C14.6232 8.8825 14.5469 8.959 14.5469 9.0525ZM14.8162 4.862L14.1567 4.20113C14.1248 4.16949 14.0818 4.15174 14.0369 4.15174C13.992 4.15174 13.949 4.16949 13.9171 4.20113L12.7169 5.40387C12.6853 5.43583 12.6676 5.47897 12.6676 5.52394C12.6676 5.5689 12.6853 5.61205 12.7169 5.644L13.3763 6.30488C13.4421 6.37075 13.5502 6.37075 13.616 6.30488L14.8162 5.10213C14.8819 5.03625 14.8819 4.92787 14.8162 4.862ZM5.09141 4.20113C5.05952 4.16949 5.01647 4.15174 4.9716 4.15174C4.92673 4.15174 4.88367 4.16949 4.85179 4.20113L4.1923 4.862C4.16073 4.89395 4.14302 4.9371 4.14302 4.98206C4.14302 5.02703 4.16073 5.07017 4.1923 5.10213L5.39252 6.30488C5.45826 6.37075 5.56641 6.37075 5.63214 6.30488L6.29163 5.644C6.35737 5.57812 6.35737 5.46975 6.29163 5.40387L5.09141 4.20113ZM4.19866 8.8825H2.50223C2.40893 8.8825 2.33259 8.959 2.33259 9.0525V9.9875C2.33259 10.081 2.40893 10.1575 2.50223 10.1575H4.19866C4.29196 10.1575 4.3683 10.081 4.3683 9.9875V9.0525C4.3683 8.959 4.29196 8.8825 4.19866 8.8825Z" fill="white"/>
</svg>
