<svg width="17" height="21" viewBox="0 0 17 21" fill="none" xmlns="http://www.w3.org/2000/svg">
<path d="M2.26667 1.23529H11.3333C11.6339 1.23529 11.9222 1.36544 12.1347 1.5971C12.3473 1.82877 12.4667 2.14297 12.4667 2.47059V8.67424C12.8501 8.7121 13.2295 8.7886 13.6 8.90276V2.47059C13.6 1.81535 13.3612 1.18694 12.9361 0.723618C12.511 0.260293 11.9345 0 11.3333 0H2.26667C1.66551 0 1.08897 0.260293 0.663891 0.723618C0.238809 1.18694 0 1.81535 0 2.47059V17.2941C0 17.9494 0.238809 18.5778 0.663891 19.0411C1.08897 19.5044 1.66551 19.7647 2.26667 19.7647H7.09127C6.80261 19.3837 6.55294 18.9694 6.34667 18.5294H2.26667C1.96609 18.5294 1.67782 18.3993 1.46528 18.1676C1.25274 17.9359 1.13333 17.6217 1.13333 17.2941H5.90127C5.7964 16.8903 5.72621 16.4768 5.6916 16.0588H1.13333V2.47059C1.13333 2.14297 1.25274 1.82877 1.46528 1.5971C1.67782 1.36544 1.96609 1.23529 2.26667 1.23529ZM3.4 2.47059C3.09942 2.47059 2.81115 2.60074 2.59861 2.8324C2.38607 3.06406 2.26667 3.37826 2.26667 3.70588V4.94118C2.26667 5.2688 2.38607 5.583 2.59861 5.81466C2.81115 6.04632 3.09942 6.17647 3.4 6.17647H10.2C10.5006 6.17647 10.7888 6.04632 11.0014 5.81466C11.2139 5.583 11.3333 5.2688 11.3333 4.94118V3.70588C11.3333 3.37826 11.2139 3.06406 11.0014 2.8324C10.7888 2.60074 10.5006 2.47059 10.2 2.47059H3.4ZM10.2 3.70588V4.94118H3.4V3.70588H10.2ZM17 15.4412C17 16.9155 16.4627 18.3294 15.5062 19.3719C14.5498 20.4143 13.2526 21 11.9 21C10.5474 21 9.25019 20.4143 8.29376 19.3719C7.33732 18.3294 6.8 16.9155 6.8 15.4412C6.8 13.9669 7.33732 12.553 8.29376 11.5105C9.25019 10.468 10.5474 9.88235 11.9 9.88235C13.2526 9.88235 14.5498 10.468 15.5062 11.5105C16.4627 12.553 17 13.9669 17 15.4412ZM11.356 13.0126C11.2825 12.9576 11.1971 12.9244 11.1083 12.9164C11.0194 12.9084 10.9302 12.9258 10.8494 12.9669C10.7835 12.9985 10.7238 13.0438 10.6737 13.1003C10.5682 13.2182 10.5092 13.3765 10.5094 13.5413V17.3398C10.5087 17.4217 10.5229 17.5029 10.5511 17.5788C10.5793 17.6547 10.621 17.7238 10.6737 17.7821C10.7255 17.8381 10.7857 17.8841 10.8517 17.9179C10.9667 17.9754 11.0971 17.9842 11.2177 17.9426C11.27 17.9239 11.3196 17.8973 11.3651 17.8636L13.9672 15.9279C14.0464 15.871 14.1102 15.7921 14.1519 15.6994C14.195 15.6059 14.2171 15.5027 14.2165 15.3981C14.2159 15.2935 14.1926 15.1906 14.1485 15.0978C14.1042 15.0063 14.039 14.9289 13.9593 14.8729L11.356 13.0126Z" fill="white"/>
</svg>
