<svg width="84" height="96" viewBox="0 0 84 96" fill="none" xmlns="http://www.w3.org/2000/svg">
<path d="M74.625 42C75.9375 42 77.1562 42.2344 78.2812 42.7031C79.4062 43.1719 80.4062 43.8281 81.2812 44.6719C82.1562 45.5156 82.8125 46.5 83.25 47.625C83.6875 48.75 83.9375 49.9688 84 51.2812C84 52.5 83.7656 53.6875 83.2969 54.8438C82.8281 56 82.1562 57.0156 81.2812 57.8906L47.6719 91.5938L30 96L34.4062 78.3281L68.0156 44.6719C68.8906 43.7969 69.9062 43.1406 71.0625 42.7031C72.2188 42.2656 73.4062 42.0312 74.625 42ZM77.0156 53.6719C77.6719 53.0156 78 52.2188 78 51.2812C78 50.3125 77.6875 49.5312 77.0625 48.9375C76.4375 48.3438 75.625 48.0312 74.625 48C74.1875 48 73.7656 48.0625 73.3594 48.1875C72.9531 48.3125 72.5938 48.5469 72.2812 48.8906L39.8438 81.4219L38.25 87.75L44.5781 86.1562L77.0156 53.6719ZM18 42H12V36H18V42ZM60 42H24V36H60V42ZM12 54H18V60H12V54ZM18 24H12V18H18V24ZM60 24H24V18H60V24ZM6 78H26.7656L25.2656 84H0V0H72V34.8281C69.9062 35.1406 67.9062 35.8281 66 36.8906V6H6V78ZM24 54H48.0938L42.0938 60H24V54Z" fill="white"/>
</svg>
