<svg width="49" height="78" viewBox="0 0 49 78" fill="none" xmlns="http://www.w3.org/2000/svg">
<path d="M38.9 4.8625C40.1896 4.8625 41.4264 5.3748 42.3383 6.28669C43.2502 7.19859 43.7625 8.43538 43.7625 9.725V68.075C43.7625 69.3646 43.2502 70.6014 42.3383 71.5133C41.4264 72.4252 40.1896 72.9375 38.9 72.9375H9.725C8.43538 72.9375 7.19859 72.4252 6.28669 71.5133C5.3748 70.6014 4.8625 69.3646 4.8625 68.075V9.725C4.8625 8.43538 5.3748 7.19859 6.28669 6.28669C7.19859 5.3748 8.43538 4.8625 9.725 4.8625H38.9ZM9.725 0C7.14577 0 4.67218 1.0246 2.84839 2.84839C1.02459 4.67218 0 7.14577 0 9.725V68.075C0 70.6542 1.02459 73.1278 2.84839 74.9516C4.67218 76.7754 7.14577 77.8 9.725 77.8H38.9C41.4792 77.8 43.9528 76.7754 45.7766 74.9516C47.6004 73.1278 48.625 70.6542 48.625 68.075V9.725C48.625 7.14577 47.6004 4.67218 45.7766 2.84839C43.9528 1.0246 41.4792 0 38.9 0L9.725 0Z" fill="white"/>
<path d="M24.3125 68.075C25.6021 68.075 26.8389 67.5627 27.7508 66.6508C28.6627 65.7389 29.1749 64.5021 29.1749 63.2125C29.1749 61.9229 28.6627 60.6861 27.7508 59.7742C26.8389 58.8623 25.6021 58.35 24.3125 58.35C23.0228 58.35 21.786 58.8623 20.8741 59.7742C19.9622 60.6861 19.45 61.9229 19.45 63.2125C19.45 64.5021 19.9622 65.7389 20.8741 66.6508C21.786 67.5627 23.0228 68.075 24.3125 68.075Z" fill="white"/>
</svg>
