<svg width="17" height="20" viewBox="0 0 17 20" fill="none" xmlns="http://www.w3.org/2000/svg">
    <path
        d="M15.5611 1.34791H13.8215L12.5851 0.097699C12.5256 0.0373353 12.4431 0 12.3524 0H4.64787C4.55676 0 4.47465 0.0373334 4.41514 0.097699L3.17872 1.34791H1.43919C0.645836 1.34791 0 2.00062 0 2.80282V18.5449C0 19.3471 0.645647 19.9998 1.43919 19.9998L15.5611 20C16.3545 20 17 19.3473 17 18.5451V2.803C17 2.00061 16.3545 1.3479 15.5611 1.3479L15.5611 1.34791ZM8.50033 3.75751L5.44246 0.665721H11.5575L8.50033 3.75751ZM12.3523 0.803709L13.3543 1.81693L9.96782 5.24123L8.96578 4.22801L12.3523 0.803709ZM4.64779 0.803709L8.03464 4.22834L7.03245 5.24156L3.64612 1.81727L4.64779 0.803709ZM0.657846 18.5452V2.80315C0.657846 2.36778 1.00814 2.01393 1.43869 2.01393H2.92199C2.93154 2.02637 2.93613 2.04105 2.94733 2.05256L6.79912 5.94769C6.86341 6.0127 6.94773 6.04521 7.03185 6.04521C7.11617 6.04521 7.20048 6.0127 7.26459 5.94769L8.17056 5.03199V19.3343H1.43852C1.00796 19.3343 0.657679 18.9805 0.657679 18.5451L0.657846 18.5452ZM16.3415 18.5452C16.3415 18.9804 15.9912 19.3345 15.561 19.3345H8.8294V5.03168L9.73482 5.94719C9.79911 6.0122 9.88342 6.04471 9.96755 6.04471C10.0519 6.04471 10.1362 6.0122 10.2003 5.94719L14.0524 2.05206C14.0635 2.04092 14.0684 2.02606 14.0778 2.01343H15.5611C15.9915 2.01343 16.3416 2.36763 16.3416 2.80265L16.3415 18.5452Z"
        fill="white" class="icon" />
    <path
        d="M14.6729 8.81891H14.4202L12.7313 7.09765C12.6036 6.96745 12.3966 6.96745 12.2687 7.09765L10.5798 8.81891H10.327C10.1465 8.81891 10 8.96827 10 9.15222V12.9212C10 13.516 10.4749 14 11.0585 14H13.9415C14.5249 14 14.9998 13.516 14.9998 12.9212L15 9.15222C15 8.96808 14.8536 8.81891 14.673 8.81891H14.6729ZM12.5001 7.80443L13.4953 8.81872H11.505L12.5001 7.80443ZM14.3459 12.9209C14.3459 13.1483 14.1647 13.333 13.9417 13.333H11.0587C10.8355 13.333 10.6542 13.1483 10.6542 12.9209V9.4854H14.3461V12.9209H14.3459Z"
        fill="white" class="icon" />
</svg>