<svg width="96" height="75" viewBox="0 0 96 75" fill="none" xmlns="http://www.w3.org/2000/svg">
<path d="M14.4 0.799988V64C14.4 65.0608 13.9786 66.0783 13.2284 66.8284C12.4783 67.5786 11.4609 68 10.4 68C9.33913 68 8.32172 67.5786 7.57157 66.8284C6.82143 66.0783 6.4 65.0608 6.4 64V16.8H0V64C0.00312315 66.7573 1.09984 69.4007 3.04954 71.3504C4.99924 73.3001 7.64271 74.3969 10.4 74.4H85.6C88.3573 74.3969 91.0008 73.3001 92.9505 71.3504C94.9002 69.4007 95.9969 66.7573 96 64V0.799988H14.4ZM89.6 64C89.5988 65.0605 89.177 66.0772 88.4271 66.8271C87.6772 67.5769 86.6605 67.9988 85.6 68H20C20.5295 66.733 20.8015 65.3732 20.8 64V7.19999H89.6V64Z" fill="white"/>
<path d="M56 13.6H27.2V45.6H56V13.6ZM49.5999 39.2H33.6V20H49.5999V39.2ZM62.3999 13.6H83.1999V20H62.3999V13.6ZM62.3999 26.4H83.1999V32.8H62.3999V26.4ZM62.3999 39.2H83.1999V45.6H62.3999V39.2Z" fill="white"/>
</svg>
