<svg width="19" height="14" viewBox="0 0 19 14" fill="none" display="inline" class="icon"
    xmlns="http://www.w3.org/2000/svg">
    <path
        d="M12.8929 9.8C12.7129 9.8 12.5403 9.87375 12.413 10.005C12.2858 10.1363 12.2143 10.3143 12.2143 10.5C12.2143 10.6857 12.2858 10.8637 12.413 10.995C12.5403 11.1263 12.7129 11.2 12.8929 11.2H15.6071C15.7871 11.2 15.9597 11.1263 16.087 10.995C16.2142 10.8637 16.2857 10.6857 16.2857 10.5C16.2857 10.3143 16.2142 10.1363 16.087 10.005C15.9597 9.87375 15.7871 9.8 15.6071 9.8H12.8929ZM0 3.5C0 2.57174 0.357461 1.6815 0.993745 1.02513C1.63003 0.368749 2.49302 0 3.39286 0H15.6071C16.507 0 17.37 0.368749 18.0063 1.02513C18.6425 1.6815 19 2.57174 19 3.5V10.5C19 11.4283 18.6425 12.3185 18.0063 12.9749C17.37 13.6313 16.507 14 15.6071 14H3.39286C2.49302 14 1.63003 13.6313 0.993745 12.9749C0.357461 12.3185 0 11.4283 0 10.5V3.5ZM17.6429 4.2V3.5C17.6429 2.94305 17.4284 2.4089 17.0466 2.01508C16.6648 1.62125 16.147 1.4 15.6071 1.4H3.39286C2.85295 1.4 2.33516 1.62125 1.95339 2.01508C1.57162 2.4089 1.35714 2.94305 1.35714 3.5V4.2H17.6429ZM1.35714 5.6V10.5C1.35714 11.057 1.57162 11.5911 1.95339 11.9849C2.33516 12.3788 2.85295 12.6 3.39286 12.6H15.6071C16.147 12.6 16.6648 12.3788 17.0466 11.9849C17.4284 11.5911 17.6429 11.057 17.6429 10.5V5.6H1.35714Z"
        fill="white" class="icon" />
</svg>