<svg width="30" height="40" viewBox="0 0 56 76" fill="none" xmlns="http://www.w3.org/2000/svg">
<path d="M42.3485 76.0001L5.37359 75.9799C4.25735 75.9799 3.34314 75.0859 3.34314 73.9974L3.38102 4.65141C3.38102 3.56042 4.29523 2.66895 5.414 2.66895L42.389 2.68915C43.5052 2.68915 44.4194 3.58315 44.4194 4.67162L44.3815 74.0202C44.3815 75.1086 43.4648 76.0001 42.3485 76.0001Z" fill="url(#paint0_radial_19_426)"/>
<path d="M29.3122 5.81056L17.473 5.80551C17.0992 5.80551 16.7961 5.5075 16.7961 5.14384C16.7961 4.78018 17.1017 4.48218 17.4755 4.48218L29.3147 4.48723C29.6885 4.48723 29.9916 4.78523 29.9916 5.14889C29.989 5.51256 29.686 5.81056 29.3122 5.81056Z" fill="#111111"/>
<path d="M41.346 66.7898L6.38633 66.7721C6.25248 66.7721 6.14136 66.6635 6.14136 66.5322L6.17419 7.8991C6.17419 7.76777 6.28531 7.65918 6.41916 7.65918L41.3788 7.67686C41.5127 7.67686 41.6238 7.78545 41.6238 7.91677L41.5909 66.5499C41.5909 66.6837 41.4823 66.7898 41.346 66.7898Z" fill="#F1F1F1"/>
<path d="M31.2543 5.81039C30.8806 5.81039 30.5775 5.51239 30.5775 5.14873C30.5775 4.78506 30.8831 4.48706 31.2569 4.48706C31.6306 4.48706 31.9337 4.78506 31.9337 5.14873C31.9337 5.51239 31.6281 5.81039 31.2543 5.81039Z" fill="#111111"/>
<path d="M38.1917 47.268H10.9448C10.7074 47.268 10.5104 47.0736 10.5104 46.8336V39.3104C10.5104 39.073 10.7048 38.876 10.9448 38.876H38.1917C38.4291 38.876 38.6261 39.0704 38.6261 39.3104V46.8336C38.6236 47.071 38.4291 47.268 38.1917 47.268Z" fill="#0FB2D8"/>
<path d="M54.0818 30.1431L8.3309 40.3131C7.19951 40.5631 6.08074 39.8509 5.83072 38.722L0.0499917 12.7226C-0.200027 11.5912 0.512148 10.4725 1.64102 10.2225L47.3919 0.0499917C48.5233 -0.200027 49.642 0.512148 49.892 1.64102L55.6728 27.6404C55.9253 28.7718 55.2106 29.8906 54.0818 30.1431Z" fill="#F7BF23"/>
<path d="M42.548 32.7063L18.122 38.136L1.75964 10.1946L26.1882 4.76489L42.548 32.7063Z" fill="#F7CA5C"/>
<path d="M50.2795 3.37032L0.435425 14.4502L1.90795 21.0745L51.7521 9.99467L50.2795 3.37032Z" fill="#262626"/>
<path d="M6.20711 20.117L10.6569 19.1296L4.88631 13.46L0.43396 14.4499L6.20711 20.117Z" fill="#333333"/>
<path d="M14.8037 18.2079L16.6751 17.7912L10.9044 12.1216L9.03308 12.5383L14.8037 18.2079Z" fill="#333333"/>
<path d="M31.9993 14.3844L38.1689 13.0131L32.3983 7.34351L26.2286 8.71482L31.9993 14.3844Z" fill="#333333"/>
<path d="M34.5541 18.697L6.31128 24.9751L7.28402 29.3511L35.5269 23.0729L34.5541 18.697Z" fill="#F1F1F1"/>
<path d="M15.5459 30.4636L7.89844 32.1636L8.39604 34.4021L16.0435 32.7021L15.5459 30.4636Z" fill="#E2A203"/>
<path d="M26.4889 28.0317L18.8414 29.7317L19.339 31.9702L26.9865 30.2703L26.4889 28.0317Z" fill="#E2A203"/>
<path d="M37.432 25.5994L29.7845 27.2993L30.2821 29.5378L37.9296 27.8379L37.432 25.5994Z" fill="#E2A203"/>
<path d="M48.3751 23.1675L40.7277 24.8674L41.2253 27.106L48.8727 25.406L48.3751 23.1675Z" fill="#E2A203"/>
<path d="M44.7872 16.4198L37.8621 17.9592L38.8348 22.3352L45.7599 20.7958L44.7872 16.4198Z" fill="#F1F1F1"/>
<path d="M23.8825 74.9064C25.7682 74.9064 27.2969 73.4139 27.2969 71.5728C27.2969 69.7318 25.7682 68.2393 23.8825 68.2393C21.9968 68.2393 20.4681 69.7318 20.4681 71.5728C20.4681 73.4139 21.9968 74.9064 23.8825 74.9064Z" fill="#111111"/>
<path d="M23.8825 74.6768C25.6385 74.6768 27.0621 73.2872 27.0621 71.573C27.0621 69.8588 25.6385 68.4692 23.8825 68.4692C22.1265 68.4692 20.703 69.8588 20.703 71.573C20.703 73.2872 22.1265 74.6768 23.8825 74.6768Z" fill="#232323"/>
<path d="M19.958 41.5378H20.6601C21.0389 41.5378 21.3116 41.5732 21.4808 41.6439C21.6475 41.7146 21.7814 41.8283 21.8773 41.9848C21.9733 42.1414 22.0213 42.3283 22.0213 42.548C22.0213 42.7905 21.9582 42.9925 21.8319 43.1516C21.7056 43.3132 21.5339 43.4243 21.3167 43.4875C21.1904 43.5228 20.9581 43.5405 20.6197 43.5405V45.0103H19.958V41.5378ZM20.6197 42.8965H20.8293C20.9934 42.8965 21.1096 42.8839 21.1727 42.8612C21.2384 42.8384 21.2889 42.798 21.3243 42.745C21.3622 42.6894 21.3798 42.6238 21.3798 42.548C21.3798 42.4142 21.3268 42.3157 21.2233 42.2551C21.1475 42.2096 21.0086 42.1869 20.804 42.1869H20.6171V42.8965H20.6197Z" fill="#F1F1F1"/>
<path d="M23.7261 41.5378H24.3954L25.7313 45.0103H25.0444L24.7717 44.2956H23.3549L23.0721 45.0103H22.3851L23.7261 41.5378ZM24.0671 42.4596L23.6024 43.6516H24.5318L24.0671 42.4596Z" fill="#F1F1F1"/>
<path d="M25.9965 41.5378H26.7061L27.3526 42.7879L27.9966 41.5378H28.6962L27.6809 43.5052V45.0078H27.0142V43.5052L25.9965 41.5378Z" fill="#F1F1F1"/>
<defs>
<radialGradient id="paint0_radial_19_426" cx="0" cy="0" r="1" gradientUnits="userSpaceOnUse" gradientTransform="translate(31.5632 5.00657) scale(73.5068 73.5068)">
<stop stop-color="#282828"/>
<stop offset="1" stop-color="#1E1E1E"/>
</radialGradient>
</defs>
</svg>
