<svg width="17" height="22" viewBox="0 0 17 22" fill="none" xmlns="http://www.w3.org/2000/svg">
<path d="M6.95443 16.2273H13.1363V17.7727H6.95443V16.2273ZM3.86353 16.2273H5.40898V17.7727H3.86353V16.2273ZM6.95443 12.3636H13.1363V13.9091H6.95443V12.3636ZM3.86353 12.3636H5.40898V13.9091H3.86353V12.3636ZM6.95443 8.5H13.1363V10.0455H6.95443V8.5ZM3.86353 8.5H5.40898V10.0455H3.86353V8.5Z" fill="white"/>
<path d="M15.4545 2.31818H13.1364V1.54545C13.1364 1.13557 12.9735 0.742482 12.6837 0.452653C12.3939 0.162824 12.0008 0 11.5909 0H5.40909C4.99921 0 4.60612 0.162824 4.31629 0.452653C4.02646 0.742482 3.86364 1.13557 3.86364 1.54545V2.31818H1.54545C1.13557 2.31818 0.742482 2.48101 0.452653 2.77083C0.162824 3.06066 0 3.45376 0 3.86364V20.0909C0 20.5008 0.162824 20.8939 0.452653 21.1837C0.742482 21.4735 1.13557 21.6364 1.54545 21.6364H15.4545C15.8644 21.6364 16.2575 21.4735 16.5473 21.1837C16.8372 20.8939 17 20.5008 17 20.0909V3.86364C17 3.45376 16.8372 3.06066 16.5473 2.77083C16.2575 2.48101 15.8644 2.31818 15.4545 2.31818ZM5.40909 1.54545H11.5909V4.63636H5.40909V1.54545ZM15.4545 20.0909H1.54545V3.86364H3.86364V6.18182H13.1364V3.86364H15.4545V20.0909Z" fill="white"/>
</svg>
