<svg width="100" height="80" viewBox="0 0 100 80" fill="none" xmlns="http://www.w3.org/2000/svg">
<path d="M32.5002 55C32.1267 55 31.7533 55.0547 31.3971 55.1703C29.3721 55.8281 27.2424 56.25 25.0002 56.25C22.758 56.25 20.6283 55.8281 18.6018 55.1703C18.2455 55.0547 17.8736 55 17.5002 55C7.80336 55 -0.05131 62.8875 0.000252418 72.5969C0.0221274 76.7 3.39556 80 7.50023 80H42.5001C46.6048 80 49.9783 76.7 50.0001 72.5969C50.0517 62.8875 42.197 55 32.5002 55ZM25.0002 50C33.2845 50 40.0002 43.2844 40.0002 35C40.0002 26.7156 33.2845 20 25.0002 20C16.7158 20 10.0002 26.7156 10.0002 35C10.0002 43.2844 16.7158 50 25.0002 50ZM92.5 0H32.5002C28.3642 0 25.0002 3.47656 25.0002 7.74844V15C28.6596 15 32.047 16.0594 35.0002 17.7812V10H90V55H80V45H60.0001V55H48.0876C51.072 57.6078 53.2626 61.0516 54.2892 65H92.5C96.6359 65 100 61.5234 100 57.2516V7.74844C100 3.47656 96.6359 0 92.5 0Z" fill="white"/>
</svg>
