<svg width="108" height="63" viewBox="0 0 108 63" fill="none" xmlns="http://www.w3.org/2000/svg">
<path d="M54 0L52.9203 0.328484L9.80313 14.8095L0 18.0494L5.70872 19.882V50.1372C3.64944 51.337 2.25934 53.5258 2.25934 56.0845C2.25934 57.9186 2.98617 59.6776 4.27994 60.9745C5.57371 62.2714 7.32843 63 9.1581 63C10.9878 63 12.7425 62.2714 14.0363 60.9745C15.33 59.6776 16.0569 57.9186 16.0569 56.0845C16.0569 53.5258 14.6668 51.337 12.6075 50.1372V22.2678L19.5062 24.5327V42.2536C19.5062 45.0889 21.2309 47.4402 23.2798 49.0653C25.3288 50.6801 27.8744 51.8211 30.9306 52.8446C37.0498 54.8847 45.1144 56.0845 54 56.0845C62.8856 56.0845 70.9502 54.8881 77.0694 52.8412C80.1256 51.8211 82.6712 50.6801 84.7202 49.0619C86.7691 47.4402 88.4938 45.0889 88.4938 42.2536V24.5327L98.1969 21.2893L108 18.0494L98.1934 14.806L55.0762 0.328484L54 0ZM54 7.24396L86.3379 18.0494L54 28.8548L21.6621 18.0494L54 7.24396ZM26.405 26.9116L52.9238 35.7703L54 36.0953L55.0797 35.7668L81.595 26.9081V42.2536C81.595 42.2881 81.6088 42.6892 80.5154 43.5502C79.4254 44.4147 77.4696 45.5038 74.9101 46.3614C69.7981 48.066 62.2613 49.169 54 49.169C45.7387 49.169 38.2019 48.0695 33.0864 46.3579C30.5339 45.5038 28.5746 44.4112 27.4846 43.5502C26.3877 42.6858 26.405 42.2881 26.405 42.2536V26.9081V26.9116Z" fill="white"/>
</svg>
